solid walls
 facet normal 1 -0 0
  outer loop
   vertex 0.161 0 0.161
   vertex 0.161 0.403 0
   vertex 0.161 0.403 0.161
  endloop
 endfacet
 facet normal 1 0 0
  outer loop
   vertex 0.161 0 0.161
   vertex 0.161 0 0
   vertex 0.161 0.403 0
  endloop
 endfacet
 facet normal 0 -1 0
  outer loop
   vertex 0.161 0 0
   vertex 0.161 0 0.161
   vertex 0 0 0
  endloop
 endfacet
 facet normal 0 -1 0
  outer loop
   vertex 0 0 0
   vertex 0.161 0 0.161
   vertex 0 0 0.161
  endloop
 endfacet
 facet normal -1 0 0
  outer loop
   vertex 0 0.403 0
   vertex 0 0 0.161
   vertex 0 0.403 0.161
  endloop
 endfacet
 facet normal -1 0 0
  outer loop
   vertex 0 0 0
   vertex 0 0 0.161
   vertex 0 0.403 0
  endloop
 endfacet
 facet normal 0 1 0
  outer loop
   vertex 0.161 0.403 0.161
   vertex 0.161 0.403 0
   vertex 0 0.403 0
  endloop
 endfacet
 facet normal 0 1 0
  outer loop
   vertex 0.161 0.403 0.161
   vertex 0 0.403 0
   vertex 0 0.403 0.161
  endloop
 endfacet
 facet normal 0 0 -1
  outer loop
   vertex 0 0 0
   vertex 0 0.403 0
   vertex 0.161 0 0
  endloop
 endfacet
 facet normal 0 0 -1
  outer loop
   vertex 0 0.403 0
   vertex 0.161 0.403 0
   vertex 0.161 0 0
  endloop
 endfacet
 facet normal 0 0 1
  outer loop
   vertex 0 0.403 0.161
   vertex 0 0 0.161
   vertex 0.161 0 0.161
  endloop
 endfacet
 facet normal 0 0 1
  outer loop
   vertex 0.161 0.403 0.161
   vertex 0 0.403 0.161
   vertex 0.161 0 0.161
  endloop
 endfacet
endsolid walls
